<?xml version="1.0" encoding="UTF-8"?>
<svg id="Layer_2" data-name="Layer 2"
  xmlns="http://www.w3.org/2000/svg" viewBox="0 0 542.35 528.7">
  <defs>
    <style>
      .cls-1 {
        fill: #383838;
      }
              path { fill: #000; }
        @media (prefers-color-scheme: dark) {
            path { fill: #FFF; }
        }
    </style>
  </defs>
  <g id="Layer_2-2" data-name="Layer 2">
    <g>
      <path class="cls-1" d="M348.13,0l-5.69,29.29c-66.7,4.06-73.21,12.2-83.78,69.95l-51.41,261.72c-10.91,59.21,11.62,97.25,55,100.35h15.12l-16.96,67.39H0l5.7-28.46c62.63-4.88,69.95-12.2,82.15-75.65L151.29,98.42c11.39-57.75,4.07-64.25-59.37-69.13L99.24,0h248.89Z"/>
      <path class="cls-1" d="M542.35,350.9l-45.68,177.8h-144.02l16.95-67.39h7.93c12.97,0,23.04-1.05,30.18-3.17,7.15-2.12,13.64-5.43,19.47-9.93,5.82-4.5,12.24-10.73,19.26-18.67,7.01-7.94,13.96-18.27,20.85-30.98,6.88-12.71,13.9-28.59,21.05-47.66h54.01Z"/>
    </g>
  </g>
</svg>