<?xml version="1.0" encoding="UTF-8"?><svg id="a" xmlns="http://www.w3.org/2000/svg" viewBox="0 0 1500 1500"><defs><style>.b{fill:#fff;}</style></defs><path class="b" d="M585.03,444.26v462.76c0,12.35,11.3,21.65,23.41,19.24l101.42-20.14c18.09-3.59,34.96,10.25,34.96,28.7v255.28c0,18.05-16.83,29.08-29.93,19.61l-204.55-148.26c-5.77-4.17-9.3-11.61-9.3-19.58V461.66c0-7.91,3.46-15.24,9.13-19.48l204.55-151.75c13.06-9.71,30.1,1.32,30.1,19.48v100.71c0,17.8-15.75,31.47-33.37,28.97l-104.06-14.77c-11.81-1.66-22.36,7.5-22.36,19.44Z"/><path class="b" d="M998.95,535.37v268.08c0,7.96-5.62,14.8-13.44,16.35l-193.85,44.14c-15.38,3.06-29.72-8.71-29.72-24.39v-327.69c0-15.13,13.39-26.75,28.37-24.62l194.3,31.6c8.22,1.18,14.34,8.22,14.34,16.53h0Z"/></svg>